<?xml version="1.0" encoding="UTF-8"?>
<svg id="Calque_1" data-name="Calque 1" xmlns="http://www.w3.org/2000/svg" version="1.1" viewBox="0 0 445.5 568">
  <defs>
    <style>
      .cls-1 {
        fill: #000;
        stroke-width: 0px;
      }
    </style>
  </defs>
  <path class="cls-1" d="M287.7,568c-95.4-38.5-190.4-76.9-285.9-115.5,3.4-8.6,6.6-16.9,9.9-25.2,7.3-18.5,14.7-37,21.9-55.6.8-2.2,1.1-5.3,0-7.4-29.6-64.8-16.4-135.8,34.6-185.2.6-.6,1.3-1,2.4-1.7-6.3-6.9-12.2-13.4-18.1-19.8-12.1-13.2-24.6-26.1-36.3-39.7C4.9,104.5.8,88.4,2,71c1.6-23,13-40.6,31.8-52.7,13.6-8.7,29.3-12.1,45.7-9.4,19.5,3.2,35.2,12.6,46.4,29.1,12.3,18.2,14.9,37.8,8.6,58.9-3.9,13.1-6.9,26.4-10.4,39.6-.8,2.9-1.7,5.7-2.5,8.6.5.2,1,.4,1.5.6,11.4-28.9,22.8-57.9,34.3-87.3,96,39.3,191.7,78.5,288.1,118-52.6,130.5-105,260.8-157.7,391.6h-.1ZM271,526.1c44.5-110.5,88.9-220.7,133.4-331.2-76.8-31.1-153-61.9-229.5-92.8-4.5,11.6-8.7,22.6-13.1,34,84.8-6.9,146.9,47.1,167.3,106.8,22.2,65,1.5,135.9-52.7,178.4-26.5,20.7-56.7,32.1-90.2,33.6-50.3,2.2-92.6-16.1-127.4-52.7-4.4,11.4-8.5,22.2-12.8,33.1,75.2,30.4,149.9,60.6,225,91v-.2ZM100.6,359.8c-3.6-18.8-7.2-37.5-10.8-56.3h-55.8c1.8,28.6,11,54.1,27.4,76.5,13.6-7,26.7-13.8,39.3-20.3h0ZM35.5,75.8c.8,21.1,15.8,34.3,32.7,34.4,21.5.2,36-14.3,35.6-36.2-.3-17.2-15.4-32.4-34.6-32-19.5.4-33.2,15.8-33.7,33.7h0ZM268.5,303.4c-3.8,19.7-7.5,38.6-11.2,57.3,12,6.3,24.6,12.8,37.3,19.5,16.5-22.9,25.7-48.3,27.3-76.8h-53.5.1ZM34,287.1h56c3.2-17.8,6.3-35.2,9.4-52.2-13.1-7-26.5-14.1-40.2-21.3-15,22-23.5,46.3-25.1,73.5h0ZM322,287.2c-1.7-27.4-10.1-51.9-25.2-73.6-13.5,7.2-26.3,14.1-38.4,20.5,3.3,17.6,6.5,35.2,9.8,53.1h53.8ZM251.2,303.5h-64.9v41.3c18.6,3.2,36.7,6.3,55.2,9.5,5.5-15.9,9.2-32.9,9.7-50.8h0ZM169.8,344.9v-41.4h-62.9c.7,17.7,4.1,34.6,9.7,50.3,18-3,35.3-5.9,53.2-8.9h0ZM243.7,240.4c-20.3,3.6-38.8,6.8-57.5,10.1v36.5h66.3c-3-16.3-6-31.8-8.7-46.6h0ZM283.2,546.8c47.8-118.8,95.4-236.9,143.4-356-5.2,2-8.9,3.1-10.8,8-44.5,110.9-89.2,221.8-134,332.6-2.1,5.3-2.5,9.8,1.4,15.4h0ZM169.9,287.3v-36.9c-18.4-3.2-36.5-6.3-54.9-9.4-4.5,14.7-7.8,30.1-8,46.3h62.9ZM165.8,74.8c1.6,7.4,3,13.7,11.4,15,2.2.3,4.2,1.9,6.4,2.7,75.6,30.6,151.1,61.1,226.7,91.7,6.1,2.5,9.2,1.9,15-3.2-86.3-35.4-172.5-70.7-259.5-106.3h0ZM186.2,151.2v82.3c17.4-.7,34.1-3.5,50.7-9-12-27.9-29-51.6-50.7-73.3ZM169.8,234.6v-82.2c-21,21.7-37.6,45.2-49.5,73.7,16.7,2.9,32.8,5.6,49.5,8.5ZM186.3,360.6v79.1c20.7-20.8,37.3-43.3,49.5-70.7-17-2.9-33-5.6-49.5-8.4h0ZM27.2,449.7c82.5,33.3,164.6,66.5,247.4,99.9-1.6-6.9-4.1-11-10.5-13.6-72.8-29.1-145.5-58.5-218.1-88.2-7.1-2.9-12.5-2.1-18.8,1.8h0ZM122.2,368.5c12,26.8,27.7,48.9,47.7,69.3v-77.1c-15.9,2.6-31.4,5.2-47.7,7.8ZM287.3,201.1c-21.1-23.5-45.5-38.5-74.9-45.4,16,19.4,29.3,40.2,39.5,64.2,11.9-6.3,23.2-12.3,35.4-18.8ZM107.5,373.9c-12.2,6.2-23.9,12.2-35.7,18.3,14.9,19.4,56,43,74.5,43-15.7-18.3-28.5-38.1-38.8-61.3ZM250.4,374.7c-9.9,22.3-22.7,41.8-37.5,60.1,28-6.8,51.6-20.7,71.8-42.4-11.8-6.1-22.8-11.8-34.3-17.7h0ZM105.7,220.6c10.1-24.3,23.4-45.3,39.2-65.3-7.9,1.9-15.2,4.7-22.7,6.9-5.2,1.6-6.9,5.3-7.8,10-.5,2.5-1.1,5-1.8,7.5-2.4,8.6-5,17.1-7.3,25.7-1,3.9-3.4,3.6-5.9,2.1-1.5-.9-2.6-2.4-3.8-3.6-4.8-5-9.5-10.1-14.6-15.5-4.1,4.3-7.8,8.1-12.2,12.8,12.8,6.7,24.7,13,37,19.4h0ZM42.9,381.1c-8.3,21.2-16.3,41.3-24.7,62.7,4.2-1.5,7.1-2.3,9.7-3.6,1.8-.9,3.9-2.3,4.5-3.9,5.7-14.1,11.2-28.3,16.6-42.6.5-1.2.5-3,0-4.1-1.5-2.7-3.5-5.1-6-8.5ZM159.8,85.2c-7.4,18.8-14.5,36.7-21.6,54.7,7.3.4,10.8-2.8,12.9-9.3,2.9-9.2,6.3-18.2,10.4-26.9,3.1-6.5,2.1-11.9-1.6-18.5h0Z"/>
</svg>