<?xml version="1.0" encoding="UTF-8"?>
<svg id="Layer_1" data-name="Layer 1" xmlns="http://www.w3.org/2000/svg" version="1.1" viewBox="0 0 317.6 185.9">
  <defs>
    <style>
      .cls-1 {
        fill: #000;
      }

      .cls-1, .cls-2 {
        stroke-width: 0px;
      }

      .cls-2 {
        fill: #231f20;
      }
    </style>
  </defs>
  <path class="cls-1" d="M94.8,181.8c-29.7-12-59.2-23.9-88.8-35.9,1.8-4.5,3.5-8.9,5.3-13.3,1.6-4,3.2-7.9,4.7-11.9.2-.6.2-1.5,0-2.1-9.2-20.1-5.1-42.1,10.8-57.6.1-.1.3-.2.6-.5-1.9-2.1-3.7-4.1-5.5-6.1-3.8-4.1-7.7-8.1-11.3-12.4-3.5-4.1-4.8-9.1-4.5-14.5.5-7.1,4-12.6,9.8-16.4,4.2-2.8,9.2-3.8,14.3-3,6.6,1,11.8,4.5,15.2,10.1,3.1,5.3,3.8,11.1,1.9,17.2-.8,2.6-1.4,5.3-2.1,7.9-.6,2.2-1.2,4.5-1.8,6.7,0,.2,0,.3-.1.5.1,0,.3,0,.4,0,3.5-9,7.1-18,10.7-27.1,29.8,12.2,59.6,24.4,89.5,36.7-16.3,40.6-32.7,81.1-49,121.7ZM55.6,47.7c12.2-1,23.4,1.7,33.3,8.6,10,7,16.7,16.4,19.8,28.2,5.5,20.7-2.8,42.2-20.6,54-9,6-18.9,8.7-29.6,8.2-13.7-.7-25.3-6.3-34.8-16.4-1.4,3.5-2.7,6.8-4,10.3,23.4,9.4,46.6,18.8,69.9,28.3,13.9-34.4,27.6-68.6,41.4-102.9-23.9-9.6-47.5-19.2-71.3-28.8-1.4,3.6-2.7,7-4.1,10.6ZM24.5,123.5c4.3-2.2,8.4-4.3,12.2-6.3-1.1-5.9-2.3-11.7-3.4-17.5H15.9c.6,8.9,3.4,16.8,8.5,23.8ZM16.4,29c.2,6.2,4.9,11,11.2,10.6,5.7-.3,10.2-4.3,10-11.2,0-5.3-4.7-10.4-11.4-9.9-5.6.4-9.7,5-9.8,10.5ZM105.4,99.7h-16.6c-1.2,6-2.3,11.9-3.5,17.7,3.6,1.9,7.5,3.9,11.6,6.1,5.1-7,7.9-14.9,8.5-23.8ZM23.7,71.8c-4.6,6.7-7.2,14.3-7.8,22.7h17.2c1.1-5.2,2.2-10.3,3.1-15.3,0-.4-.2-1.1-.5-1.3-4-2.1-8-4.1-12.1-6.1ZM85.7,78.1c1,5.4,2,10.9,3.1,16.4h16.6c.4-6.2-4.1-19-7.8-22.7-4,2.1-8,4.3-11.8,6.3ZM80.3,115.4c1.7-3.7,3.4-12.9,2.9-15.8h-19.9v12.8c5.7,1,11.3,1.9,17.1,2.9ZM38.6,99.6c.2,5.3,1.2,10.3,2.9,15.1.1.3.9.6,1.3.5,1.1-.2,2.2-.6,3.3-.8,4-.7,8-1.3,12.1-1.9v-12.9h-19.5ZM63.2,94.6h20.2c-.1-5.1-1.1-10-2.6-14.5-6,1.1-11.7,2.1-17.6,3.1v11.4ZM93.4,175.3c14.9-36.9,29.6-73.6,44.5-110.5-1.7.5-2.8,1.1-3.4,2.7-13.8,34.5-27.8,69-41.7,103.5-.6,1.6-.4,2.8.6,4.4ZM58.2,83.2c-5.7-1-11.3-1.9-17-2.9-1.4,4.6-2.4,9.3-2.5,14.3h19.5v-11.4ZM137.6,61.7c-26.9-11-53.7-22-80.7-33.1.5,2.3.9,4.2,3.5,4.7.9.2,1.8.8,2.7,1.1,22.9,9.3,45.9,18.5,68.8,27.9,2.1.8,3.8,1.1,5.7-.6ZM63.2,52.4v25.6c5.4-.2,10.6-1.1,15.7-2.8-3.7-8.7-9-16-15.7-22.8ZM58.2,52.7c-6.6,6.8-11.7,14.1-15.2,22.5,3.2,1.5,12.7,3,15.2,2.5v-25ZM63.3,117.4v24.5c6.4-6.4,11.6-13.4,15.4-21.9-5.3-.9-10.2-1.7-15.4-2.6ZM90.7,176.1c-.4-2.2-1.3-3.4-3.3-4.2-22.6-9-45.2-18.2-67.8-27.4-2.2-.9-3.9-.5-5.8.6,25.6,10.4,51.1,20.7,76.9,31.1ZM58.1,141.4v-23.9c-5,.8-9.7,1.6-14.8,2.5,3.7,8.3,8.6,15.1,14.8,21.5ZM71,53.5c5.3,6.3,9.5,12.7,12.7,20.2,3.7-2,7.2-3.9,11-5.9-6.5-7.3-14.1-11.9-23.6-14.3ZM50.7,140.8c-2.3-3.2-4.5-6.1-6.5-9.2-2-3.1-3.7-6.4-5.6-10-3.6,1.8-7.2,3.7-11,5.6,6.6,6.9,14.1,11.4,23.2,13.5ZM83.2,121.8c-3.1,7-7.1,13-12,18.9,9.1-2.4,16.4-6.7,22.7-13.4-3.7-1.9-7.1-3.7-10.7-5.5ZM50.5,53.9c0-.1-.2-.3-.2-.4-2.1.7-4.2,1.5-6.3,2.1-2.1.6-2.7,2-3.2,3.9-.8,3.3-1.8,6.6-2.7,9.8-.3,1.1-1.1,1-1.8.6-.5-.2-.8-.7-1.2-1.1-1.5-1.6-2.9-3.1-4.3-4.6-1.3,1.2-2.6,2.3-4.1,3.7,4,2.1,7.7,4,11.5,6,3.1-7.6,7.3-14.1,12.3-20ZM11.1,143.1c2.4-.7,4.3-1.1,5.1-3.7,1-3.5,2.4-6.9,4-10.2,1.1-2.3.1-3.7-1.4-5.3-2.5,6.4-5,12.7-7.6,19.2ZM55,31.9c-2.3,5.8-4.5,11.4-6.7,17,2.4.2,3.4-1,4-3,.8-2.7,1.9-5.3,3.1-7.9,1-2.1.9-3.9-.4-6.1Z"/>
  <g>
    <path class="cls-2" d="M185.5,102.6c-1.3,2.1-3.5,4-6.4,5.7-2.9,1.7-6.7,2.5-11.3,2.5s-10.6-1.8-14.2-5.4c-3.6-3.6-5.4-8.7-5.4-15.3v-16.7c0-6.5,1.7-11.6,5.2-15.2,3.5-3.6,8.1-5.4,13.9-5.4s10.1,1.5,13.2,4.4,4.6,7,4.5,12.1v.2h-7.5c0-3.4-.9-6-2.6-7.9-1.7-1.9-4.2-2.8-7.5-2.8s-6.3,1.2-8.3,3.7c-2,2.5-3,6-3,10.7v16.8c0,4.8,1.1,8.5,3.2,11,2.1,2.5,5,3.8,8.6,3.8s4.8-.4,6.4-1.2c1.6-.8,2.7-1.8,3.5-3v-13.1h-10.4v-5.7h18.3v20.9Z"/>
    <path class="cls-2" d="M222.9,83.8h-19.1v20.2h22.5v6h-30.4v-56.3h30.2v6h-22.3v18.1h19.1v6Z"/>
    <path class="cls-2" d="M272.1,89.6c0,6.7-1.8,11.9-5.4,15.6-3.6,3.7-8.4,5.6-14.5,5.6s-10.7-1.9-14.3-5.6c-3.5-3.7-5.3-8.9-5.3-15.6v-15.5c0-6.7,1.8-11.9,5.3-15.6,3.5-3.8,8.3-5.6,14.2-5.6s10.9,1.9,14.5,5.6c3.6,3.8,5.4,9,5.4,15.6v15.5ZM264.2,74c0-4.9-1.1-8.6-3.2-11.2-2.1-2.5-5.1-3.8-9-3.8s-6.7,1.3-8.7,3.8c-2,2.5-3,6.3-3,11.2v15.6c0,5,1,8.7,3.1,11.3,2,2.6,4.9,3.8,8.7,3.8s6.9-1.3,9-3.8c2.1-2.5,3.1-6.3,3.1-11.3v-15.6Z"/>
  </g>
  <g>
    <path class="cls-2" d="M175.7,148.3h-19.7v25h-7.9v-56.3h31v6h-23.1v19.3h19.7v6Z"/>
    <path class="cls-2" d="M194.2,149.1v24.3h-7.9v-56.3h16.6c5.4,0,9.6,1.4,12.6,4.1,3,2.8,4.4,6.7,4.4,11.9s-.7,5.5-2.1,7.7c-1.4,2.2-3.4,3.9-5.9,5.1,2.9,1,5,2.6,6.2,4.9,1.3,2.3,1.9,5.1,1.9,8.4v4.9c0,1.7.2,3.3.5,4.8.3,1.5.9,2.7,1.8,3.5v.9h-8.1c-.9-.9-1.5-2.1-1.7-3.9s-.4-3.5-.4-5.4v-4.8c0-3.1-.7-5.6-2.2-7.5-1.5-1.8-3.5-2.7-6.1-2.7h-9.7ZM194.2,143.1h8.4c3.2,0,5.6-.9,7.2-2.6,1.5-1.7,2.3-4.1,2.3-7.3s-.8-5.7-2.3-7.5-3.8-2.7-6.9-2.7h-8.7v20Z"/>
    <path class="cls-2" d="M255.3,159.1h-16.8l-4.1,14.2h-8.2l16.9-56.3h7.6l16.8,56.3h-8.2l-4.1-14.2ZM240.3,152.8h13.3l-6.5-22.9h-.2l-6.6,22.9Z"/>
    <path class="cls-2" d="M308.8,156.4v.2c.2,5.5-1.4,9.9-4.6,12.9-3.2,3.1-7.6,4.6-13.2,4.6s-10.4-1.9-13.8-5.6c-3.4-3.7-5.1-8.9-5.1-15.6v-15.6c0-6.7,1.7-11.9,5.1-15.6,3.4-3.7,7.9-5.6,13.6-5.6s10.2,1.5,13.5,4.5c3.2,3,4.8,7.3,4.7,13.1v.2h-7.6c0-4-.9-7-2.6-8.9-1.8-1.9-4.4-2.8-7.9-2.8s-6.1,1.3-8,3.9c-1.9,2.6-2.8,6.3-2.8,11.2v15.7c0,4.9,1,8.7,2.9,11.3,1.9,2.6,4.7,3.9,8.2,3.9s6-.9,7.7-2.8c1.7-1.9,2.6-4.9,2.6-9h7.5Z"/>
  </g>
</svg>