<?xml version="1.0" encoding="UTF-8"?>
<svg id="Layer_1" data-name="Layer 1" xmlns="http://www.w3.org/2000/svg" version="1.1" viewBox="0 0 756.5 265.8">
  <defs>
    <style>
      .cls-1 {
        fill: #000;
        stroke-width: 0px;
      }
    </style>
  </defs>
  <path class="cls-1" d="M309.2.5c7.2,3,14.3,6.1,21.5,9,40.6,16.7,81.1,33.3,121.7,49.9.6.3,1.3.6,2.3,1-26.6,66.1-53.2,132.1-79.9,198.4-48.4-19.6-96.5-39-144.9-58.6,2-5.1,4-10.1,5.9-15,3.5-8.9,7-17.7,10.4-26.7.4-1.1.4-2.8-.1-3.9-19.5-42.6,0-91.9,43.3-109.6,1.1-.5,2.3-1.6,2.8-2.7,4.6-11.4,9.1-22.9,13.7-34.4,1-2.5,1.9-5.1,2.8-7.6.2,0,.4,0,.5,0ZM311,39.8c19.9-1.7,37.8,2.7,54,13.6,16.2,11,27.1,26,32.4,44.8,9,31.5-2,65.6-27.5,85.6-16.8,13.2-35.9,19-57.2,17.2-21.3-1.7-39.1-11-53.8-26.8-2.3,6-4.4,11.5-6.6,17.3,38.1,15.4,75.9,30.7,114,46.1,22.6-56.1,45.1-111.9,67.6-167.9-38.9-15.7-77.5-31.3-116.3-47-2.2,5.8-4.4,11.2-6.6,17ZM260.4,163.4c6.9-3.6,13.6-7,19.9-10.3-1.8-9.5-3.7-19-5.5-28.5h-28.3c1,14.4,5.6,27.3,13.9,38.7ZM359.8,153.6c5.9,3.1,12.3,6.4,18.9,9.8,8.3-11.4,13.1-24.3,13.8-38.8h-27.1c-1.9,9.8-3.8,19.4-5.6,29ZM259.3,79.1c-7.5,11.2-11.8,23.5-12.7,37.3h28.3c1.6-9,3.2-17.7,4.8-26.4-6.5-3.5-13.3-7.1-20.4-10.9ZM392.5,116.5c-.8-14.1-5.1-26.4-12.8-37.4-6.8,3.6-13.3,7.1-19.2,10.3,1.4,8.7,2.7,17.1,4,25.6.2,1.5,1,1.6,2.1,1.6,4.2,0,8.4,0,12.6,0,4.3,0,8.5,0,13.2,0ZM323.7,145.5c9.4,1.6,18.6,3.2,28,4.9,2.8-8.1,4.7-16.7,4.9-25.7h-32.9v20.9ZM288.4,150.1c9.1-1.5,18-3,26.9-4.5v-20.9h-31.8c.3,8.9,2.1,17.4,4.9,25.4ZM356.4,116.5c.5-6-2.2-20.1-4.3-23.8-9.6,1.7-19,3.4-28.6,5.1,0,5.2,0,10.6,0,16,0,2,.5,2.7,2.6,2.7,7.4-.1,14.7,0,22.1,0,2.7,0,5.4,0,8.2,0ZM372.4,248.4c24.3-60.4,48.4-120.3,72.7-180.4-3.5.7-4.9,2.7-6,5.4-22.5,56.1-45.1,112.1-67.7,168.1-1,2.5-.2,4.3,1.1,6.9ZM315.4,97.7c-9.4-1.6-18.5-3.2-27.7-4.8-2.4,7.4-3.9,15.2-4.1,23.4h31.9v-18.6ZM444.6,62.9c-44.1-18.1-87.7-35.9-131.6-53.9.7,4,1.7,7,5.9,7.7,1,.2,1.9.8,2.9,1.2,38.2,15.5,76.5,30.9,114.7,46.4,3.1,1.3,5.3.6,8.1-1.4ZM349.4,84.6c-6.1-14.1-14.6-26.1-25.7-37.1v41.7c8.8-.4,17.2-1.8,25.7-4.5ZM315.4,48c-10.7,11.2-19.2,22.9-24.8,36.9,8.3,2.5,16.4,3.9,24.8,4.2v-41.1ZM323.7,154.2v39.5c10.6-10.5,18.8-21.9,24.9-35.3-8.3-2.5-16.4-3.9-24.9-4.2ZM368.1,249.7c-.8-3.4-1.9-5.5-5.1-6.8-37.4-14.9-74.7-30-111.9-45.2-3.2-1.3-5.3,0-8.3,1.4,41.9,17,83.4,33.7,125.3,50.6ZM315.4,154.1c-8.3.4-16.1,1.5-23.8,4,5.8,13.1,13.8,24.2,23.8,34.6v-38.6ZM264.2,72.8c6.4,3.4,12.4,6.5,18.7,9.8,5.2-12.3,11.9-22.9,19.9-32.9-15.2,3.4-27.7,11-38.6,23.1ZM357,82.3c6.1-3.2,11.8-6.3,17.9-9.6-10.6-11.8-22.8-19.4-37.7-22.9,7.9,9.8,14.7,20.2,19.8,32.4ZM303.1,191.4c-7.8-9.4-14.2-19.7-19.5-31.1-6.1,3.2-12,6.2-18.2,9.4,10.7,11.4,23,18.5,37.6,21.7ZM356.2,160.7c-5,11.3-11.4,21.2-19,30.4,14.1-3.4,26.1-10.4,36.3-21.4-5.9-3.1-11.5-6-17.3-9ZM250.8,164c-4.2,10.6-8.3,21-12.5,31.7,4.6-.7,7.2-2.5,8.4-6.6,1.7-5.5,3.8-10.9,6.3-16.1,1.8-3.8.5-6.2-2.2-8.9ZM299.1,41.8c3.2,0,5.2-.8,6.3-4,1.7-5.3,3.8-10.5,6-15.7,1.2-2.8,0-4.9-1.4-7.6-3.7,9.4-7.2,18.3-10.8,27.4Z"/>
  <path class="cls-1" d="M158.8,101.6c.7-15.8,11.7-27.8,27.2-30.9,15.7-3.2,31.8,8.2,35.1,23.8,2,9.5-.8,17.9-5.6,26-5.7,9.8-11,19.7-16.4,29.6-2,3.6-3.7,7.3-5.6,10.9-.5,1-1.5,2.1-2.5,2.3-.6.1-1.7-1.2-2.2-2.1-4-7.1-7.9-14.2-11.9-21.3-5.1-9.1-10.4-18-15.1-27.2-1.7-3.3-2-7.3-2.9-11ZM206.2,100.9c0-8.6-6.8-15.4-15.5-15.5-8.8,0-15.8,6.9-15.7,15.6,0,8.6,6.9,15.5,15.5,15.5,8.7,0,15.7-6.9,15.7-15.6Z"/>
  <path class="cls-1" d="M546.6,159.3h-11.7v-82.4c.9,0,1.9-.1,2.9-.1,9.9,0,19.8,0,29.7,0,12.6,0,21.5,6.7,23.7,18.4,2.3,12.6-2.7,23.9-14.2,28.1-.2,0-.3.2-.6.5,6.2,11.8,12.4,23.6,18.8,35.8-4.6,0-8.8,0-12.9,0-.7,0-1.6-1.2-2-2-5.2-10.1-10.3-20.3-15.4-30.5-.9-1.7-1.8-2.4-3.8-2.3-4.7.2-9.4,0-14.5,0v34.7ZM546.5,113.3c8,0,15.6.2,23.2,0,3.8-.1,6.5-2.5,8.1-5.9,2.1-4.3,2.1-8.8.1-13.2-1.6-3.7-4.5-6-8.5-6.1-7.1-.2-14.2-.1-21.3,0-.6,0-1.6.9-1.6,1.4-.1,7.9,0,15.7,0,24Z"/>
  <path class="cls-1" d="M68.7,115.1c-.3,7.5,0,14.9-1.2,22-2.9,16.2-15.9,25.1-32.2,23.1-15.8-2-25.3-12.7-25.3-28.6,0-8.8-.2-17.5,0-26.3.4-12.2,5.1-22.3,16.9-27.1,16.7-6.8,35.2.8,40.3,20.3.1.6.1,1.2.2,2.2-4,0-7.8,0-11.6,0-.6,0-1.2-1.3-1.5-2.1-3.1-8-10.5-12.3-18.8-10.8-7.2,1.3-12.9,7.4-13.2,15.6-.4,10.2-.4,20.5,0,30.7.3,8.3,7,14.2,15.4,14.8,9.2.6,16.1-4.2,17.9-12.7.7-3.1.7-6.4,1-9.9h-16.8v-11.1h28.9Z"/>
  <path class="cls-1" d="M86.3,76.7h2.9c15.8,0,31.5,0,47.3,0,2.2,0,3.3.5,3,2.9-.2,1.5,0,3,0,4.5,0,4.4.6,4-4.1,4-11.3,0-22.6,0-33.9,0-1,0-2.1,0-3.3,0v24.8h34.8v11.1h-34.8v24.2h41.1v11h-52.9v-82.5Z"/>
  <path class="cls-1" d="M670.6,159.4c-4.1,0-7.7.1-11.2,0-.7,0-1.7-1-2-1.8-1.7-4.7-3.4-9.4-4.9-14.1-.5-1.5-1.3-2-2.8-2-9.7,0-19.4,0-29.2,0-1.5,0-2.2.5-2.6,1.9-1.5,4.7-3.3,9.4-4.8,14.2-.5,1.4-1.1,2.1-2.8,2.1-3.4-.1-6.8,0-10.6,0,.5-1.4.8-2.5,1.2-3.5,9.4-25.6,18.9-51.2,28.3-76.8.7-1.9,1.7-2.5,3.6-2.4,7.3,0,7.3,0,9.9,7,8.9,24.1,17.8,48.3,26.7,72.4.4,1,.7,1.9,1.2,3.4ZM647.9,130c-4.2-12.3-8.3-24.2-12.4-36.2-.2,0-.4,0-.6,0-4.1,11.9-8.2,23.9-12.4,36.2h25.4Z"/>
  <path class="cls-1" d="M734.1,100.6c-3.6,0-7.1.1-10.6-.1-.7,0-1.6-1.4-2-2.3-3.9-9-13.9-13.4-22.6-9.5-6,2.7-9.2,7.8-9.5,14.1-.5,10.2-.5,20.5,0,30.7.4,8.2,6.6,14.3,13.9,15.2,8.3,1,15.5-3.4,18.4-11.2.5-1.4,1.1-2,2.6-1.9,3.2.1,6.5,0,10.1,0-.5,2-.9,3.7-1.5,5.4-8.7,23.5-35.2,23.1-46.6,12.4-5.8-5.4-8.9-12.3-9.1-20-.4-10.1-.4-20.3,0-30.5.6-15.2,11.3-26,26-27,15.2-1,28,8.7,30.9,23.5,0,.2,0,.5,0,1.3Z"/>
  <path class="cls-1" d="M520.5,76.9c0,2.9,0,5.6,0,8.3,0,.8,0,1.6-.1,2.7h-40.1v25.5c.9,0,1.8.2,2.7.2,9.5,0,19.1,0,28.6,0,2,0,2.9.4,2.7,2.6-.2,1.9-.2,3.9,0,5.8.2,2.3-.5,3-2.9,3-9.3-.1-18.6,0-27.8,0-1,0-2.1,0-3.4,0v34.4h-11.6v-82.3h51.9Z"/>
</svg>